<svg width="28" height="32" viewBox="0 0 28 32" fill="none" xmlns="http://www.w3.org/2000/svg">
<path d="M20.628 0H26.294C26.816 0 27.24 0.42 27.24 0.938V26.375C27.24 29.159 25.2 31.47 22.52 31.92C21.798 31.973 21.168 32 20.628 32H4.808C4.68429 32.0005 4.5617 31.9767 4.44721 31.9298C4.33272 31.883 4.22858 31.814 4.14073 31.7269C4.05289 31.6398 3.98306 31.5363 3.93523 31.4222C3.88741 31.3081 3.86252 31.1857 3.862 31.062V27.53H3.223C1.446 27.53 0 26.096 0 24.335C0 22.574 1.446 21.141 3.223 21.141H3.862V23.016H3.223C2.489 23.016 1.892 23.608 1.892 24.336C1.892 25.063 2.489 25.654 3.223 25.654H3.862V23.016H7.765C8.287 23.016 8.711 22.596 8.711 22.079C8.71048 21.9553 8.68559 21.8329 8.63777 21.7188C8.58994 21.6047 8.52011 21.5012 8.43227 21.4141C8.34442 21.327 8.24028 21.258 8.12579 21.2112C8.0113 21.1643 7.88871 21.1405 7.765 21.141H3.862V19.194H3.223C1.446 19.194 0 17.761 0 16C0 14.239 1.446 12.806 3.223 12.806H3.862V14.681H3.223C2.489 14.681 1.892 15.273 1.892 16C1.892 16.727 2.489 17.32 3.223 17.32H3.862V14.681L7.765 14.68C8.287 14.68 8.711 14.261 8.711 13.743C8.70968 13.4933 8.6093 13.2544 8.43192 13.0787C8.25454 12.903 8.01466 12.8049 7.765 12.806H3.862V10.859H3.223C1.446 10.859 0 9.426 0 7.665C0 5.904 1.446 4.47 3.223 4.47H3.862V6.345H3.223C2.489 6.345 1.892 6.936 1.892 7.664C1.892 8.391 2.489 8.983 3.223 8.983H3.862V6.346H7.765C8.287 6.346 8.711 5.926 8.711 5.408C8.70968 5.15834 8.6093 4.91941 8.43192 4.74372C8.25454 4.56803 8.01466 4.46994 7.765 4.471H3.982C4.519 1.918 6.802 0 9.538 0H20.628ZM16.15 17.333H13.455L13.635 19.312V23.714C13.635 25.73 14.077 27.171 14.961 28.036C15.845 28.901 17.103 29.333 18.734 29.333C22.134 29.333 23.834 27.483 23.834 23.783V17.333H21.31V23.68C21.31 24.89 21.114 25.803 20.722 26.417C20.33 27.031 19.667 27.337 18.734 27.337C17.813 27.337 17.152 27.019 16.751 26.383C16.351 25.746 16.151 24.845 16.151 23.68L16.15 17.333Z" fill="#FA7268"/>
</svg>
